<svg xmlns="http://www.w3.org/2000/svg" version="1.1" xmlns:xlink="http://www.w3.org/1999/xlink" xmlns:svgjs="http://svgjs.dev/svgjs" width="1440" height="560" preserveAspectRatio="none" viewBox="0 0 1440 560"><g mask="url(&quot;#SvgjsMask1098&quot;)" fill="none"><rect width="1440" height="560" x="0" y="0" fill="url(&quot;#SvgjsLinearGradient1099&quot;)"></rect><path d="M1464 560L0 560 L0 351.55Q65.22 296.77, 120 361.99Q158.25 280.25, 240 318.5Q284.66 243.16, 360 287.83Q447.24 255.07, 480 342.31Q503.64 293.95, 552 317.59Q641.03 286.62, 672 375.64Q699.24 330.88, 744 358.11Q773.74 315.85, 816 345.58Q857.41 266.99, 936 308.4Q963.61 264, 1008 291.61Q1059.45 271.06, 1080 322.52Q1157.74 280.26, 1200 358Q1242.99 329, 1272 371.99Q1301.02 281.01, 1392 310.03Q1414.43 260.46, 1464 282.9z" fill="#182f5d"></path><path d="M1464 560L0 560 L0 419.65Q52.88 352.53, 120 405.41Q141.35 354.76, 192 376.12Q277.3 341.42, 312 426.72Q333.82 328.54, 432 350.36Q474.99 321.35, 504 364.33Q546.89 335.23, 576 378.12Q647.22 329.34, 696 400.56Q713.44 346, 768 363.45Q833.49 308.94, 888 374.43Q964.63 331.06, 1008 407.68Q1061.63 341.31, 1128 394.93Q1143.41 338.34, 1200 353.75Q1270.12 303.87, 1320 373.98Q1378.09 360.06, 1392 418.15Q1399.48 353.63, 1464 361.1z" fill="#25467d"></path><path d="M1464 560L0 560 L0 463.6Q18.15 409.75, 72 427.91Q144.68 380.59, 192 453.27Q248.31 437.57, 264 493.88Q267.35 425.23, 336 428.58Q411.03 431.61, 408 506.63Q449.38 476.01, 480 517.4Q498.01 463.41, 552 481.43Q623.82 433.25, 672 505.07Q708.61 421.68, 792 458.29Q811.34 405.63, 864 424.97Q905.88 394.85, 936 436.73Q1006.1 434.83, 1008 504.93Q1019.71 444.64, 1080 456.36Q1124.78 429.14, 1152 473.92Q1168.16 418.09, 1224 434.25Q1297.55 387.79, 1344 461.34Q1425.62 422.95, 1464 504.57z" fill="#356cb1"></path><path d="M1488 560L0 560 L0 571.87Q10.36 510.23, 72 520.59Q101.29 477.88, 144 507.17Q231.06 474.23, 264 561.28Q335.51 512.79, 384 584.3Q392.98 521.28, 456 530.26Q507.3 461.56, 576 512.86Q632.06 496.92, 648 552.98Q698.31 483.29, 768 533.59Q820 465.59, 888 517.58Q938.09 495.67, 960 545.77Q1035.63 501.4, 1080 577.03Q1092.84 517.87, 1152 530.7Q1172.85 479.55, 1224 500.4Q1311.05 467.45, 1344 554.5Q1367.14 505.64, 1416 528.79Q1441.76 482.55, 1488 508.31z" fill="white"></path></g><defs><mask id="SvgjsMask1098"><rect width="1440" height="560" fill="#ffffff"></rect></mask><linearGradient x1="15.28%" y1="-39.29%" x2="84.72%" y2="139.29%" gradientUnits="userSpaceOnUse" id="SvgjsLinearGradient1099"><stop stop-color="#0e2a47" offset="0"></stop><stop stop-color="#00459e" offset="1"></stop></linearGradient></defs></svg>